<svg xmlns="http://www.w3.org/2000/svg" width="400" height="533">
  <defs>
    <linearGradient id="bg" x1="0" y1="0" x2="1" y2="1">
      <stop offset="0" stop-color="#1a3a6a"/>
      <stop offset="0.5" stop-color="#0a1628"/>
      <stop offset="1" stop-color="#060e1b"/>
    </linearGradient>
    <linearGradient id="gold" x1="0" y1="0" x2="0" y2="1">
      <stop offset="0" stop-color="#f4d878"/>
      <stop offset="0.5" stop-color="#c9a84c"/>
      <stop offset="1" stop-color="#8a6f2e"/>
    </linearGradient>
    <linearGradient id="art" x1="0" y1="0" x2="0" y2="1">
      <stop offset="0" stop-color="#2a5a9a"/>
      <stop offset="1" stop-color="#0a1a3a"/>
    </linearGradient>
  </defs>
  <rect width="400" height="533" fill="url(#bg)"/>
  <rect x="16" y="16" width="368" height="501" rx="20" fill="none" stroke="url(#gold)" stroke-width="5"/>
  <rect x="28" y="28" width="344" height="477" rx="14" fill="none" stroke="#c9a84c" stroke-width="1" opacity="0.5"/>
  <rect x="40" y="45" width="320" height="44" rx="10" fill="url(#gold)" opacity="0.95"/>
  <text x="200" y="76" font-family="Arial Black, sans-serif" font-size="26" fill="#0a1628" text-anchor="middle" font-weight="bold">POKEMON</text>
  <rect x="40" y="105" width="320" height="320" rx="16" fill="url(#art)" stroke="#c9a84c" stroke-width="3"/>
  <circle cx="200" cy="265" r="100" fill="none" stroke="#c9a84c" stroke-width="5" opacity="0.6"/>
  <circle cx="200" cy="265" r="70" fill="none" stroke="#f4d878" stroke-width="3" opacity="0.4"/>
  <circle cx="200" cy="265" r="45" fill="#c9a84c" opacity="0.12"/>
  <text x="200" y="282" font-family="Arial Black, sans-serif" font-size="64" fill="#c9a84c" text-anchor="middle" opacity="0.6">T</text>
  <rect x="60" y="125" width="110" height="28" rx="6" fill="#c9a84c" opacity="0.25"/>
  <text x="115" y="144" font-family="Arial, sans-serif" font-size="14" fill="#f4d878" text-anchor="middle" font-weight="bold">STELLAR</text>
  <rect x="230" y="125" width="110" height="28" rx="6" fill="#c9a84c" opacity="0.25"/>
  <text x="285" y="144" font-family="Arial, sans-serif" font-size="14" fill="#f4d878" text-anchor="middle" font-weight="bold">CROWN</text>
  <text x="200" y="465" font-family="Arial Black, sans-serif" font-size="20" fill="#f4d878" text-anchor="middle" opacity="0.9">S&amp;V Stellar Crown</text>
  <rect x="60" y="480" width="280" height="4" fill="url(#gold)" opacity="0.7"/>
  <text x="200" y="505" font-family="Arial, sans-serif" font-size="14" fill="#c9a84c" text-anchor="middle" opacity="0.6">BOOSTER BOX</text>
</svg>
